<mxfile host="app.diagrams.net" modified="2022-07-11T13:45:50.277Z" agent="5.0 (Macintosh; Intel Mac OS X 10_15_7) AppleWebKit/537.36 (KHTML, like Gecko) Chrome/102.0.0.0 Safari/537.36" etag="x6lgnwqbccBMmcjgfLH3" version="20.0.1" type="github">
  <diagram name="Page-1" id="74e2e168-ea6b-b213-b513-2b3c1d86103e">
    <mxGraphModel dx="2360" dy="1516" grid="0" gridSize="10" guides="1" tooltips="1" connect="1" arrows="1" fold="1" page="1" pageScale="1" pageWidth="1100" pageHeight="850" background="none" math="0" shadow="0">
      <root>
        <mxCell id="0" />
        <mxCell id="1" parent="0" />
        <mxCell id="77e6c97f196da883-1" value="Ticket flow" style="swimlane;html=1;childLayout=stackLayout;startSize=20;rounded=0;shadow=0;labelBackgroundColor=none;strokeWidth=1;fontFamily=Verdana;fontSize=8;align=center;" parent="1" vertex="1">
          <mxGeometry x="43" y="40" width="1907" height="1280" as="geometry" />
        </mxCell>
        <mxCell id="77e6c97f196da883-2" value="JIRA" style="swimlane;html=1;startSize=20;" parent="77e6c97f196da883-1" vertex="1">
          <mxGeometry y="20" width="245" height="1260" as="geometry" />
        </mxCell>
        <mxCell id="JwGOns0t6T0o0Sj6g02T-75" value="Raise On call Jira with proper priority" style="html=1;strokeWidth=2;fillColor=#FAE5C7;strokeColor=#0F8B8D;fontColor=#143642;rounded=1;labelBorderColor=none;whiteSpace=wrap;" vertex="1" parent="77e6c97f196da883-2">
          <mxGeometry x="101" y="631" width="120" height="60" as="geometry" />
        </mxCell>
        <mxCell id="JwGOns0t6T0o0Sj6g02T-83" value="Follow up on JIra" style="html=1;strokeWidth=2;fillColor=#FAE5C7;strokeColor=#0F8B8D;fontColor=#143642;rounded=1;labelBorderColor=none;whiteSpace=wrap;" vertex="1" parent="77e6c97f196da883-2">
          <mxGeometry x="6" y="950" width="120" height="60" as="geometry" />
        </mxCell>
        <mxCell id="JwGOns0t6T0o0Sj6g02T-80" value="Update from JIRA with in SLA" style="rhombus;html=1;strokeWidth=2;fillColor=#FAE5C7;strokeColor=#0F8B8D;fontColor=#143642;rounded=1;labelBorderColor=none;whiteSpace=wrap;" vertex="1" parent="77e6c97f196da883-2">
          <mxGeometry x="116" y="785" width="90" height="80" as="geometry" />
        </mxCell>
        <mxCell id="JwGOns0t6T0o0Sj6g02T-74" value="" style="edgeStyle=orthogonalEdgeStyle;rounded=1;orthogonalLoop=1;jettySize=auto;html=1;labelBackgroundColor=#DAD2D8;strokeColor=#A8201A;fontColor=#143642;labelBorderColor=none;" edge="1" parent="77e6c97f196da883-2" source="JwGOns0t6T0o0Sj6g02T-75" target="JwGOns0t6T0o0Sj6g02T-80">
          <mxGeometry relative="1" as="geometry" />
        </mxCell>
        <mxCell id="JwGOns0t6T0o0Sj6g02T-82" style="edgeStyle=orthogonalEdgeStyle;rounded=1;orthogonalLoop=1;jettySize=auto;html=1;exitX=0.5;exitY=0;exitDx=0;exitDy=0;entryX=0.5;entryY=0;entryDx=0;entryDy=0;labelBackgroundColor=#DAD2D8;strokeColor=#A8201A;fontColor=#143642;labelBorderColor=none;" edge="1" parent="77e6c97f196da883-2" source="JwGOns0t6T0o0Sj6g02T-83" target="JwGOns0t6T0o0Sj6g02T-80">
          <mxGeometry relative="1" as="geometry" />
        </mxCell>
        <mxCell id="JwGOns0t6T0o0Sj6g02T-78" value="" style="edgeStyle=orthogonalEdgeStyle;rounded=1;orthogonalLoop=1;jettySize=auto;html=1;labelBackgroundColor=#DAD2D8;strokeColor=#A8201A;fontColor=#143642;labelBorderColor=none;entryX=1;entryY=0.5;entryDx=0;entryDy=0;" edge="1" parent="77e6c97f196da883-2" source="JwGOns0t6T0o0Sj6g02T-80" target="JwGOns0t6T0o0Sj6g02T-83">
          <mxGeometry relative="1" as="geometry" />
        </mxCell>
        <mxCell id="JwGOns0t6T0o0Sj6g02T-79" value="No" style="edgeLabel;html=1;align=center;verticalAlign=middle;resizable=0;points=[];labelBackgroundColor=#DAD2D8;fontColor=#143642;rounded=1;labelBorderColor=none;" vertex="1" connectable="0" parent="JwGOns0t6T0o0Sj6g02T-78">
          <mxGeometry x="-0.1667" y="1" relative="1" as="geometry">
            <mxPoint as="offset" />
          </mxGeometry>
        </mxCell>
        <mxCell id="77e6c97f196da883-3" value="Zendesk" style="swimlane;html=1;startSize=20;" parent="77e6c97f196da883-1" vertex="1">
          <mxGeometry x="245" y="20" width="993" height="1260" as="geometry" />
        </mxCell>
        <mxCell id="JwGOns0t6T0o0Sj6g02T-33" value="Ticket flow for zendesk" style="shape=process;html=1;backgroundOutline=1;strokeWidth=2;fillColor=#FAE5C7;strokeColor=#0F8B8D;fontColor=#143642;rounded=1;labelBorderColor=none;whiteSpace=wrap;" vertex="1" parent="77e6c97f196da883-3">
          <mxGeometry x="320" y="60" width="120" height="60" as="geometry" />
        </mxCell>
        <mxCell id="JwGOns0t6T0o0Sj6g02T-37" value="Is data in ticket is sufficient" style="rhombus;html=1;strokeWidth=2;fillColor=#FAE5C7;strokeColor=#0F8B8D;fontColor=#143642;rounded=1;labelBorderColor=none;whiteSpace=wrap;" vertex="1" parent="77e6c97f196da883-3">
          <mxGeometry x="340" y="500" width="80" height="80" as="geometry" />
        </mxCell>
        <mxCell id="JwGOns0t6T0o0Sj6g02T-39" value="Share the response in below format:&lt;br&gt;1.Issue Summary&lt;br&gt;2. Root Cause Analysis&lt;br&gt;3. Steps to resolve the issue" style="html=1;strokeWidth=2;fillColor=#FAE5C7;strokeColor=#0F8B8D;fontColor=#143642;rounded=1;labelBorderColor=none;whiteSpace=wrap;" vertex="1" parent="77e6c97f196da883-3">
          <mxGeometry x="286" y="757" width="180" height="90" as="geometry" />
        </mxCell>
        <mxCell id="JwGOns0t6T0o0Sj6g02T-41" value="Share your understanding on the issue and ask for missing information in bulletin format(ensure you cover all the require information from user side in this mail)&lt;br&gt;Share the ETA" style="html=1;strokeWidth=2;fillColor=#FAE5C7;strokeColor=#0F8B8D;fontColor=#143642;rounded=1;labelBorderColor=none;whiteSpace=wrap;" vertex="1" parent="77e6c97f196da883-3">
          <mxGeometry x="690" y="460" width="120" height="160" as="geometry" />
        </mxCell>
        <mxCell id="JwGOns0t6T0o0Sj6g02T-34" value="" style="edgeStyle=orthogonalEdgeStyle;rounded=1;orthogonalLoop=1;jettySize=auto;html=1;labelBackgroundColor=#DAD2D8;strokeColor=#A8201A;fontColor=#143642;labelBorderColor=none;" edge="1" parent="77e6c97f196da883-3" source="JwGOns0t6T0o0Sj6g02T-37" target="JwGOns0t6T0o0Sj6g02T-41">
          <mxGeometry relative="1" as="geometry" />
        </mxCell>
        <mxCell id="JwGOns0t6T0o0Sj6g02T-43" value="Validate the below details:&lt;br&gt;1. Priority of the issue&lt;br&gt;2. All the customer are listed in intercom are present in the ticket&lt;br&gt;" style="html=1;strokeWidth=2;fillColor=#FAE5C7;strokeColor=#0F8B8D;fontColor=#143642;rounded=1;labelBorderColor=none;whiteSpace=wrap;" vertex="1" parent="77e6c97f196da883-3">
          <mxGeometry x="320" y="200" width="120" height="110" as="geometry" />
        </mxCell>
        <mxCell id="JwGOns0t6T0o0Sj6g02T-32" value="" style="edgeStyle=orthogonalEdgeStyle;rounded=1;orthogonalLoop=1;jettySize=auto;html=1;labelBackgroundColor=#DAD2D8;strokeColor=#A8201A;fontColor=#143642;labelBorderColor=none;" edge="1" parent="77e6c97f196da883-3" source="JwGOns0t6T0o0Sj6g02T-33" target="JwGOns0t6T0o0Sj6g02T-43">
          <mxGeometry relative="1" as="geometry" />
        </mxCell>
        <mxCell id="JwGOns0t6T0o0Sj6g02T-44" style="edgeStyle=orthogonalEdgeStyle;rounded=1;orthogonalLoop=1;jettySize=auto;html=1;exitX=0.5;exitY=1;exitDx=0;exitDy=0;entryX=0.5;entryY=0;entryDx=0;entryDy=0;labelBackgroundColor=#DAD2D8;strokeColor=#A8201A;fontColor=#143642;labelBorderColor=none;" edge="1" parent="77e6c97f196da883-3" source="JwGOns0t6T0o0Sj6g02T-45" target="JwGOns0t6T0o0Sj6g02T-37">
          <mxGeometry relative="1" as="geometry" />
        </mxCell>
        <mxCell id="JwGOns0t6T0o0Sj6g02T-45" value="Update the title of ticket" style="html=1;strokeWidth=2;fillColor=#FAE5C7;strokeColor=#0F8B8D;fontColor=#143642;rounded=1;labelBorderColor=none;whiteSpace=wrap;" vertex="1" parent="77e6c97f196da883-3">
          <mxGeometry x="320" y="390" width="120" height="60" as="geometry" />
        </mxCell>
        <mxCell id="JwGOns0t6T0o0Sj6g02T-42" value="" style="edgeStyle=orthogonalEdgeStyle;rounded=1;orthogonalLoop=1;jettySize=auto;html=1;labelBackgroundColor=#DAD2D8;strokeColor=#A8201A;fontColor=#143642;labelBorderColor=none;" edge="1" parent="77e6c97f196da883-3" source="JwGOns0t6T0o0Sj6g02T-43" target="JwGOns0t6T0o0Sj6g02T-45">
          <mxGeometry relative="1" as="geometry" />
        </mxCell>
        <mxCell id="JwGOns0t6T0o0Sj6g02T-48" style="edgeStyle=orthogonalEdgeStyle;rounded=1;orthogonalLoop=1;jettySize=auto;html=1;exitX=0;exitY=0.5;exitDx=0;exitDy=0;entryX=0.5;entryY=0;entryDx=0;entryDy=0;labelBackgroundColor=#DAD2D8;strokeColor=#A8201A;fontColor=#143642;labelBorderColor=none;" edge="1" parent="77e6c97f196da883-3" source="JwGOns0t6T0o0Sj6g02T-52" target="JwGOns0t6T0o0Sj6g02T-37">
          <mxGeometry relative="1" as="geometry" />
        </mxCell>
        <mxCell id="JwGOns0t6T0o0Sj6g02T-49" value="Yes" style="edgeLabel;html=1;align=center;verticalAlign=middle;resizable=0;points=[];fontColor=#143642;labelBackgroundColor=#DAD2D8;" vertex="1" connectable="0" parent="JwGOns0t6T0o0Sj6g02T-48">
          <mxGeometry x="-0.7612" y="4" relative="1" as="geometry">
            <mxPoint as="offset" />
          </mxGeometry>
        </mxCell>
        <mxCell id="JwGOns0t6T0o0Sj6g02T-52" value="Customer responded?" style="rhombus;html=1;strokeWidth=2;fillColor=#FAE5C7;strokeColor=#0F8B8D;fontColor=#143642;rounded=1;labelBorderColor=none;whiteSpace=wrap;" vertex="1" parent="77e6c97f196da883-3">
          <mxGeometry x="700" y="700" width="100" height="80" as="geometry" />
        </mxCell>
        <mxCell id="JwGOns0t6T0o0Sj6g02T-40" value="" style="edgeStyle=orthogonalEdgeStyle;rounded=1;orthogonalLoop=1;jettySize=auto;html=1;labelBackgroundColor=#DAD2D8;strokeColor=#A8201A;fontColor=#143642;labelBorderColor=none;" edge="1" parent="77e6c97f196da883-3" source="JwGOns0t6T0o0Sj6g02T-41" target="JwGOns0t6T0o0Sj6g02T-52">
          <mxGeometry relative="1" as="geometry" />
        </mxCell>
        <mxCell id="JwGOns0t6T0o0Sj6g02T-54" value="Follow up max 3 times with interval of 2/4/8 hrs depending upon the priority&amp;nbsp;" style="html=1;strokeWidth=2;fillColor=#FAE5C7;strokeColor=#0F8B8D;fontColor=#143642;rounded=1;labelBorderColor=none;whiteSpace=wrap;" vertex="1" parent="77e6c97f196da883-3">
          <mxGeometry x="840" y="710" width="120" height="60" as="geometry" />
        </mxCell>
        <mxCell id="JwGOns0t6T0o0Sj6g02T-50" value="" style="edgeStyle=orthogonalEdgeStyle;rounded=1;orthogonalLoop=1;jettySize=auto;html=1;labelBackgroundColor=#DAD2D8;strokeColor=#A8201A;fontColor=#143642;labelBorderColor=none;" edge="1" parent="77e6c97f196da883-3" source="JwGOns0t6T0o0Sj6g02T-52" target="JwGOns0t6T0o0Sj6g02T-54">
          <mxGeometry relative="1" as="geometry" />
        </mxCell>
        <mxCell id="JwGOns0t6T0o0Sj6g02T-51" value="No" style="edgeLabel;html=1;align=center;verticalAlign=middle;resizable=0;points=[];labelBackgroundColor=#DAD2D8;fontColor=#143642;rounded=1;labelBorderColor=none;" vertex="1" connectable="0" parent="JwGOns0t6T0o0Sj6g02T-50">
          <mxGeometry x="-0.3143" y="1" relative="1" as="geometry">
            <mxPoint as="offset" />
          </mxGeometry>
        </mxCell>
        <mxCell id="JwGOns0t6T0o0Sj6g02T-55" style="edgeStyle=orthogonalEdgeStyle;rounded=1;orthogonalLoop=1;jettySize=auto;html=1;exitX=0;exitY=0.5;exitDx=0;exitDy=0;entryX=0.5;entryY=0;entryDx=0;entryDy=0;labelBackgroundColor=#DAD2D8;strokeColor=#A8201A;fontColor=#143642;labelBorderColor=none;" edge="1" parent="77e6c97f196da883-3" source="JwGOns0t6T0o0Sj6g02T-58" target="JwGOns0t6T0o0Sj6g02T-37">
          <mxGeometry relative="1" as="geometry" />
        </mxCell>
        <mxCell id="JwGOns0t6T0o0Sj6g02T-56" value="Yes" style="edgeLabel;html=1;align=center;verticalAlign=middle;resizable=0;points=[];labelBackgroundColor=#DAD2D8;fontColor=#143642;rounded=1;labelBorderColor=none;" vertex="1" connectable="0" parent="JwGOns0t6T0o0Sj6g02T-55">
          <mxGeometry x="-0.6607" y="4" relative="1" as="geometry">
            <mxPoint as="offset" />
          </mxGeometry>
        </mxCell>
        <mxCell id="JwGOns0t6T0o0Sj6g02T-58" value="Customer responds with in 3 followup" style="rhombus;html=1;strokeWidth=2;fillColor=#FAE5C7;strokeColor=#0F8B8D;fontColor=#143642;rounded=1;labelBorderColor=none;whiteSpace=wrap;" vertex="1" parent="77e6c97f196da883-3">
          <mxGeometry x="840" y="880" width="120" height="100" as="geometry" />
        </mxCell>
        <mxCell id="JwGOns0t6T0o0Sj6g02T-53" value="" style="edgeStyle=orthogonalEdgeStyle;rounded=1;orthogonalLoop=1;jettySize=auto;html=1;labelBackgroundColor=#DAD2D8;strokeColor=#A8201A;fontColor=#143642;labelBorderColor=none;" edge="1" parent="77e6c97f196da883-3" source="JwGOns0t6T0o0Sj6g02T-54" target="JwGOns0t6T0o0Sj6g02T-58">
          <mxGeometry relative="1" as="geometry" />
        </mxCell>
        <mxCell id="JwGOns0t6T0o0Sj6g02T-62" value="Is a premium customer" style="rhombus;html=1;strokeWidth=2;fillColor=#FAE5C7;strokeColor=#0F8B8D;fontColor=#143642;rounded=1;labelBorderColor=none;whiteSpace=wrap;" vertex="1" parent="77e6c97f196da883-3">
          <mxGeometry x="860" y="1020" width="80" height="80" as="geometry" />
        </mxCell>
        <mxCell id="JwGOns0t6T0o0Sj6g02T-57" value="" style="edgeStyle=orthogonalEdgeStyle;rounded=1;orthogonalLoop=1;jettySize=auto;html=1;labelBackgroundColor=#DAD2D8;strokeColor=#A8201A;fontColor=#143642;labelBorderColor=none;" edge="1" parent="77e6c97f196da883-3" source="JwGOns0t6T0o0Sj6g02T-58" target="JwGOns0t6T0o0Sj6g02T-62">
          <mxGeometry relative="1" as="geometry" />
        </mxCell>
        <mxCell id="JwGOns0t6T0o0Sj6g02T-65" style="edgeStyle=orthogonalEdgeStyle;rounded=1;orthogonalLoop=1;jettySize=auto;html=1;exitX=1;exitY=0.5;exitDx=0;exitDy=0;entryX=0.5;entryY=1;entryDx=0;entryDy=0;labelBackgroundColor=#DAD2D8;strokeColor=#A8201A;fontColor=#143642;labelBorderColor=none;" edge="1" parent="77e6c97f196da883-3" source="JwGOns0t6T0o0Sj6g02T-67" target="JwGOns0t6T0o0Sj6g02T-52">
          <mxGeometry relative="1" as="geometry" />
        </mxCell>
        <mxCell id="JwGOns0t6T0o0Sj6g02T-66" value="No" style="edgeLabel;html=1;align=center;verticalAlign=middle;resizable=0;points=[];labelBackgroundColor=#DAD2D8;fontColor=#143642;rounded=1;labelBorderColor=none;" vertex="1" connectable="0" parent="JwGOns0t6T0o0Sj6g02T-65">
          <mxGeometry x="-0.5536" relative="1" as="geometry">
            <mxPoint y="1" as="offset" />
          </mxGeometry>
        </mxCell>
        <mxCell id="JwGOns0t6T0o0Sj6g02T-67" value="Customer acknowledged&amp;nbsp;" style="rhombus;html=1;strokeWidth=2;fillColor=#FAE5C7;strokeColor=#0F8B8D;fontColor=#143642;rounded=1;labelBorderColor=none;whiteSpace=wrap;" vertex="1" parent="77e6c97f196da883-3">
          <mxGeometry x="510" y="850" width="80" height="80" as="geometry" />
        </mxCell>
        <mxCell id="JwGOns0t6T0o0Sj6g02T-38" value="" style="edgeStyle=orthogonalEdgeStyle;rounded=1;orthogonalLoop=1;jettySize=auto;html=1;labelBackgroundColor=#DAD2D8;strokeColor=#A8201A;fontColor=#143642;labelBorderColor=none;" edge="1" parent="77e6c97f196da883-3" source="JwGOns0t6T0o0Sj6g02T-39" target="JwGOns0t6T0o0Sj6g02T-67">
          <mxGeometry relative="1" as="geometry" />
        </mxCell>
        <mxCell id="JwGOns0t6T0o0Sj6g02T-68" value="Close" style="ellipse;html=1;strokeWidth=2;fillColor=#FAE5C7;strokeColor=#0F8B8D;fontColor=#143642;rounded=1;labelBorderColor=none;whiteSpace=wrap;" vertex="1" parent="77e6c97f196da883-3">
          <mxGeometry x="520" y="1140" width="60" height="60" as="geometry" />
        </mxCell>
        <mxCell id="JwGOns0t6T0o0Sj6g02T-59" style="edgeStyle=orthogonalEdgeStyle;rounded=1;orthogonalLoop=1;jettySize=auto;html=1;exitX=0;exitY=0.5;exitDx=0;exitDy=0;labelBorderColor=none;fontColor=#143642;strokeColor=#A8201A;fillColor=#FAE5C7;labelBackgroundColor=#DAD2D8;" edge="1" parent="77e6c97f196da883-3" source="JwGOns0t6T0o0Sj6g02T-62" target="JwGOns0t6T0o0Sj6g02T-68">
          <mxGeometry relative="1" as="geometry" />
        </mxCell>
        <mxCell id="JwGOns0t6T0o0Sj6g02T-60" value="No" style="edgeLabel;html=1;align=center;verticalAlign=middle;resizable=0;points=[];fontColor=#143642;labelBackgroundColor=#DAD2D8;" vertex="1" connectable="0" parent="JwGOns0t6T0o0Sj6g02T-59">
          <mxGeometry x="-0.3977" relative="1" as="geometry">
            <mxPoint as="offset" />
          </mxGeometry>
        </mxCell>
        <mxCell id="JwGOns0t6T0o0Sj6g02T-63" value="" style="edgeStyle=orthogonalEdgeStyle;rounded=1;orthogonalLoop=1;jettySize=auto;html=1;labelBackgroundColor=#DAD2D8;strokeColor=#A8201A;fontColor=#143642;labelBorderColor=none;" edge="1" parent="77e6c97f196da883-3" source="JwGOns0t6T0o0Sj6g02T-67" target="JwGOns0t6T0o0Sj6g02T-68">
          <mxGeometry relative="1" as="geometry" />
        </mxCell>
        <mxCell id="JwGOns0t6T0o0Sj6g02T-64" value="Yes" style="edgeLabel;html=1;align=center;verticalAlign=middle;resizable=0;points=[];labelBackgroundColor=#DAD2D8;fontColor=#143642;rounded=1;labelBorderColor=none;" vertex="1" connectable="0" parent="JwGOns0t6T0o0Sj6g02T-63">
          <mxGeometry x="-0.0778" y="-1" relative="1" as="geometry">
            <mxPoint y="1" as="offset" />
          </mxGeometry>
        </mxCell>
        <mxCell id="JwGOns0t6T0o0Sj6g02T-69" style="edgeStyle=orthogonalEdgeStyle;rounded=1;orthogonalLoop=1;jettySize=auto;html=1;labelBackgroundColor=#DAD2D8;strokeColor=#A8201A;fontColor=#143642;labelBorderColor=none;" edge="1" parent="77e6c97f196da883-3" target="JwGOns0t6T0o0Sj6g02T-39">
          <mxGeometry relative="1" as="geometry">
            <mxPoint x="374" y="706" as="sourcePoint" />
          </mxGeometry>
        </mxCell>
        <mxCell id="JwGOns0t6T0o0Sj6g02T-70" value="Yes" style="edgeLabel;html=1;align=center;verticalAlign=middle;resizable=0;points=[];labelBackgroundColor=#DAD2D8;fontColor=#143642;rounded=1;labelBorderColor=none;" vertex="1" connectable="0" parent="JwGOns0t6T0o0Sj6g02T-69">
          <mxGeometry x="-0.1636" y="1" relative="1" as="geometry">
            <mxPoint as="offset" />
          </mxGeometry>
        </mxCell>
        <mxCell id="JwGOns0t6T0o0Sj6g02T-73" value="Can be resolved by Support" style="rhombus;html=1;strokeWidth=2;fillColor=#FAE5C7;strokeColor=#0F8B8D;fontColor=#143642;rounded=1;labelBorderColor=none;whiteSpace=wrap;" vertex="1" parent="77e6c97f196da883-3">
          <mxGeometry x="340" y="640" width="80" height="60" as="geometry" />
        </mxCell>
        <mxCell id="JwGOns0t6T0o0Sj6g02T-35" value="" style="edgeStyle=orthogonalEdgeStyle;rounded=1;orthogonalLoop=1;jettySize=auto;html=1;labelBackgroundColor=#DAD2D8;strokeColor=#A8201A;fontColor=#143642;labelBorderColor=none;" edge="1" parent="77e6c97f196da883-3" source="JwGOns0t6T0o0Sj6g02T-37" target="JwGOns0t6T0o0Sj6g02T-73">
          <mxGeometry relative="1" as="geometry" />
        </mxCell>
        <mxCell id="JwGOns0t6T0o0Sj6g02T-36" value="Yes" style="edgeLabel;html=1;align=center;verticalAlign=middle;resizable=0;points=[];labelBackgroundColor=#DAD2D8;fontColor=#143642;rounded=1;labelBorderColor=none;" vertex="1" connectable="0" parent="JwGOns0t6T0o0Sj6g02T-35">
          <mxGeometry x="0.28" y="1" relative="1" as="geometry">
            <mxPoint as="offset" />
          </mxGeometry>
        </mxCell>
        <mxCell id="JwGOns0t6T0o0Sj6g02T-81" value="Update customer" style="html=1;strokeWidth=2;fillColor=#FAE5C7;strokeColor=#0F8B8D;fontColor=#143642;rounded=1;labelBorderColor=none;whiteSpace=wrap;" vertex="1" parent="77e6c97f196da883-3">
          <mxGeometry x="131" y="960" width="120" height="60" as="geometry" />
        </mxCell>
        <mxCell id="JwGOns0t6T0o0Sj6g02T-84" style="edgeStyle=orthogonalEdgeStyle;rounded=1;orthogonalLoop=1;jettySize=auto;html=1;exitX=1;exitY=0.5;exitDx=0;exitDy=0;entryX=0;entryY=0.5;entryDx=0;entryDy=0;labelBackgroundColor=#DAD2D8;strokeColor=#A8201A;fontColor=#143642;labelBorderColor=none;" edge="1" parent="77e6c97f196da883-3" source="JwGOns0t6T0o0Sj6g02T-81" target="JwGOns0t6T0o0Sj6g02T-67">
          <mxGeometry relative="1" as="geometry" />
        </mxCell>
        <mxCell id="JwGOns0t6T0o0Sj6g02T-85" style="edgeStyle=orthogonalEdgeStyle;rounded=1;orthogonalLoop=1;jettySize=auto;html=1;exitX=0;exitY=0.5;exitDx=0;exitDy=0;entryX=1;entryY=0.5;entryDx=0;entryDy=0;labelBorderColor=none;fontColor=#143642;strokeColor=#A8201A;fillColor=#FAE5C7;labelBackgroundColor=#DAD2D8;" edge="1" parent="77e6c97f196da883-3" source="JwGOns0t6T0o0Sj6g02T-86" target="JwGOns0t6T0o0Sj6g02T-68">
          <mxGeometry relative="1" as="geometry" />
        </mxCell>
        <mxCell id="JwGOns0t6T0o0Sj6g02T-86" value="Share the ticket link and customer email with customer sucess team&amp;nbsp;" style="whiteSpace=wrap;html=1;fillColor=#FAE5C7;strokeColor=#0F8B8D;fontColor=#143642;strokeWidth=2;rounded=1;labelBorderColor=none;" vertex="1" parent="77e6c97f196da883-3">
          <mxGeometry x="840" y="1140" width="120" height="60" as="geometry" />
        </mxCell>
        <mxCell id="JwGOns0t6T0o0Sj6g02T-61" value="" style="edgeStyle=orthogonalEdgeStyle;rounded=1;orthogonalLoop=1;jettySize=auto;html=1;labelBorderColor=none;fontColor=#143642;strokeColor=#A8201A;fillColor=#FAE5C7;labelBackgroundColor=#DAD2D8;" edge="1" parent="77e6c97f196da883-3" source="JwGOns0t6T0o0Sj6g02T-62" target="JwGOns0t6T0o0Sj6g02T-86">
          <mxGeometry relative="1" as="geometry" />
        </mxCell>
        <mxCell id="77e6c97f196da883-7" value="Intercom" style="swimlane;html=1;startSize=20;" parent="77e6c97f196da883-1" vertex="1">
          <mxGeometry x="1238" y="20" width="630" height="1260" as="geometry" />
        </mxCell>
        <mxCell id="JwGOns0t6T0o0Sj6g02T-87" value="" style="group" vertex="1" connectable="0" parent="77e6c97f196da883-7">
          <mxGeometry x="120" y="60" width="440" height="640" as="geometry" />
        </mxCell>
        <mxCell id="JwGOns0t6T0o0Sj6g02T-2" value="Intercom&lt;br&gt;Ticket&lt;br&gt;Created" style="strokeWidth=2;html=1;shape=mxgraph.flowchart.start_2;fillColor=#FAE5C7;strokeColor=#0F8B8D;fontColor=#143642;rounded=1;labelBorderColor=none;whiteSpace=wrap;" vertex="1" parent="JwGOns0t6T0o0Sj6g02T-87">
          <mxGeometry x="200" width="60" height="60" as="geometry" />
        </mxCell>
        <mxCell id="JwGOns0t6T0o0Sj6g02T-6" value="Issue/query" style="rhombus;html=1;strokeWidth=2;fillColor=#FAE5C7;strokeColor=#0F8B8D;fontColor=#143642;rounded=1;labelBorderColor=none;whiteSpace=wrap;" vertex="1" parent="JwGOns0t6T0o0Sj6g02T-87">
          <mxGeometry x="190" y="80" width="80" height="80" as="geometry" />
        </mxCell>
        <mxCell id="JwGOns0t6T0o0Sj6g02T-1" value="" style="edgeStyle=orthogonalEdgeStyle;rounded=1;orthogonalLoop=1;jettySize=auto;html=1;labelBackgroundColor=#DAD2D8;strokeColor=#A8201A;fontColor=#143642;labelBorderColor=none;" edge="1" parent="JwGOns0t6T0o0Sj6g02T-87" source="JwGOns0t6T0o0Sj6g02T-2" target="JwGOns0t6T0o0Sj6g02T-6">
          <mxGeometry relative="1" as="geometry" />
        </mxCell>
        <mxCell id="JwGOns0t6T0o0Sj6g02T-8" value="Create ticket in Zendesk" style="html=1;strokeWidth=2;fillColor=#FAE5C7;strokeColor=#0F8B8D;fontColor=#143642;rounded=1;labelBorderColor=none;whiteSpace=wrap;" vertex="1" parent="JwGOns0t6T0o0Sj6g02T-87">
          <mxGeometry x="60" y="180" width="120" height="60" as="geometry" />
        </mxCell>
        <mxCell id="JwGOns0t6T0o0Sj6g02T-3" value="Issue" style="edgeStyle=orthogonalEdgeStyle;rounded=1;orthogonalLoop=1;jettySize=auto;html=1;labelBackgroundColor=#DAD2D8;strokeColor=#A8201A;fontColor=#143642;labelBorderColor=none;" edge="1" parent="JwGOns0t6T0o0Sj6g02T-87" source="JwGOns0t6T0o0Sj6g02T-6" target="JwGOns0t6T0o0Sj6g02T-8">
          <mxGeometry relative="1" as="geometry" />
        </mxCell>
        <mxCell id="JwGOns0t6T0o0Sj6g02T-11" value="Update customer with below macro:&lt;br&gt;&lt;b&gt;Zendesk Customer Informed&lt;/b&gt;" style="html=1;strokeWidth=2;fillColor=#FAE5C7;strokeColor=#0F8B8D;fontColor=#143642;rounded=1;labelBorderColor=none;whiteSpace=wrap;" vertex="1" parent="JwGOns0t6T0o0Sj6g02T-87">
          <mxGeometry x="60" y="350" width="120" height="60" as="geometry" />
        </mxCell>
        <mxCell id="JwGOns0t6T0o0Sj6g02T-16" value="Customer acknowledged&amp;nbsp;" style="rhombus;html=1;strokeWidth=2;fillColor=#FAE5C7;strokeColor=#0F8B8D;fontColor=#143642;rounded=1;labelBorderColor=none;whiteSpace=wrap;" vertex="1" parent="JwGOns0t6T0o0Sj6g02T-87">
          <mxGeometry y="440" width="120" height="80" as="geometry" />
        </mxCell>
        <mxCell id="JwGOns0t6T0o0Sj6g02T-9" value="" style="edgeStyle=orthogonalEdgeStyle;rounded=1;orthogonalLoop=1;jettySize=auto;html=1;labelBackgroundColor=#DAD2D8;strokeColor=#A8201A;fontColor=#143642;labelBorderColor=none;" edge="1" parent="JwGOns0t6T0o0Sj6g02T-87" source="JwGOns0t6T0o0Sj6g02T-11" target="JwGOns0t6T0o0Sj6g02T-16">
          <mxGeometry relative="1" as="geometry" />
        </mxCell>
        <mxCell id="JwGOns0t6T0o0Sj6g02T-17" value="Close ticket" style="ellipse;html=1;strokeWidth=2;fillColor=#FAE5C7;strokeColor=#0F8B8D;fontColor=#143642;rounded=1;labelBorderColor=none;whiteSpace=wrap;" vertex="1" parent="JwGOns0t6T0o0Sj6g02T-87">
          <mxGeometry x="110" y="580" width="70" height="60" as="geometry" />
        </mxCell>
        <mxCell id="JwGOns0t6T0o0Sj6g02T-12" value="" style="edgeStyle=orthogonalEdgeStyle;rounded=1;orthogonalLoop=1;jettySize=auto;html=1;labelBackgroundColor=#DAD2D8;strokeColor=#A8201A;fontColor=#143642;labelBorderColor=none;" edge="1" parent="JwGOns0t6T0o0Sj6g02T-87" source="JwGOns0t6T0o0Sj6g02T-16" target="JwGOns0t6T0o0Sj6g02T-17">
          <mxGeometry relative="1" as="geometry" />
        </mxCell>
        <mxCell id="JwGOns0t6T0o0Sj6g02T-13" value="Yes" style="edgeLabel;html=1;align=center;verticalAlign=middle;resizable=0;points=[];labelBackgroundColor=#DAD2D8;fontColor=#143642;rounded=1;labelBorderColor=none;" vertex="1" connectable="0" parent="JwGOns0t6T0o0Sj6g02T-12">
          <mxGeometry x="0.0111" y="3" relative="1" as="geometry">
            <mxPoint y="1" as="offset" />
          </mxGeometry>
        </mxCell>
        <mxCell id="JwGOns0t6T0o0Sj6g02T-19" value="Follow up with customer" style="html=1;strokeWidth=2;fillColor=#FAE5C7;strokeColor=#0F8B8D;fontColor=#143642;rounded=1;labelBorderColor=none;whiteSpace=wrap;" vertex="1" parent="JwGOns0t6T0o0Sj6g02T-87">
          <mxGeometry x="210" y="410" width="120" height="60" as="geometry" />
        </mxCell>
        <mxCell id="JwGOns0t6T0o0Sj6g02T-14" value="" style="edgeStyle=orthogonalEdgeStyle;rounded=1;orthogonalLoop=1;jettySize=auto;html=1;labelBackgroundColor=#DAD2D8;strokeColor=#A8201A;fontColor=#143642;labelBorderColor=none;" edge="1" parent="JwGOns0t6T0o0Sj6g02T-87" source="JwGOns0t6T0o0Sj6g02T-16" target="JwGOns0t6T0o0Sj6g02T-19">
          <mxGeometry relative="1" as="geometry" />
        </mxCell>
        <mxCell id="JwGOns0t6T0o0Sj6g02T-15" value="No" style="edgeLabel;html=1;align=center;verticalAlign=middle;resizable=0;points=[];labelBackgroundColor=#DAD2D8;fontColor=#143642;rounded=1;labelBorderColor=none;" vertex="1" connectable="0" parent="JwGOns0t6T0o0Sj6g02T-14">
          <mxGeometry x="-0.1" y="-1" relative="1" as="geometry">
            <mxPoint as="offset" />
          </mxGeometry>
        </mxCell>
        <mxCell id="JwGOns0t6T0o0Sj6g02T-20" style="edgeStyle=orthogonalEdgeStyle;rounded=1;orthogonalLoop=1;jettySize=auto;html=1;exitX=0;exitY=0.5;exitDx=0;exitDy=0;entryX=0.5;entryY=0;entryDx=0;entryDy=0;labelBackgroundColor=#DAD2D8;strokeColor=#A8201A;fontColor=#143642;labelBorderColor=none;" edge="1" parent="JwGOns0t6T0o0Sj6g02T-87" source="JwGOns0t6T0o0Sj6g02T-24" target="JwGOns0t6T0o0Sj6g02T-17">
          <mxGeometry relative="1" as="geometry" />
        </mxCell>
        <mxCell id="JwGOns0t6T0o0Sj6g02T-21" value="Yes" style="edgeLabel;html=1;align=center;verticalAlign=middle;resizable=0;points=[];labelBackgroundColor=#DAD2D8;fontColor=#143642;rounded=1;labelBorderColor=none;" vertex="1" connectable="0" parent="JwGOns0t6T0o0Sj6g02T-20">
          <mxGeometry x="-0.1647" y="-1" relative="1" as="geometry">
            <mxPoint as="offset" />
          </mxGeometry>
        </mxCell>
        <mxCell id="JwGOns0t6T0o0Sj6g02T-22" style="edgeStyle=orthogonalEdgeStyle;rounded=1;orthogonalLoop=1;jettySize=auto;html=1;exitX=1;exitY=0.5;exitDx=0;exitDy=0;entryX=1;entryY=0.5;entryDx=0;entryDy=0;labelBackgroundColor=#DAD2D8;strokeColor=#A8201A;fontColor=#143642;labelBorderColor=none;" edge="1" parent="JwGOns0t6T0o0Sj6g02T-87" source="JwGOns0t6T0o0Sj6g02T-24" target="JwGOns0t6T0o0Sj6g02T-19">
          <mxGeometry relative="1" as="geometry" />
        </mxCell>
        <mxCell id="JwGOns0t6T0o0Sj6g02T-23" value="No" style="edgeLabel;html=1;align=center;verticalAlign=middle;resizable=0;points=[];labelBackgroundColor=#DAD2D8;fontColor=#143642;rounded=1;labelBorderColor=none;" vertex="1" connectable="0" parent="JwGOns0t6T0o0Sj6g02T-22">
          <mxGeometry x="-0.2857" y="-2" relative="1" as="geometry">
            <mxPoint as="offset" />
          </mxGeometry>
        </mxCell>
        <mxCell id="JwGOns0t6T0o0Sj6g02T-24" value="Customer acknowledged/&lt;br&gt;Followed 3 times&amp;nbsp;" style="rhombus;html=1;strokeWidth=2;fillColor=#FAE5C7;strokeColor=#0F8B8D;fontColor=#143642;rounded=1;labelBorderColor=none;whiteSpace=wrap;" vertex="1" parent="JwGOns0t6T0o0Sj6g02T-87">
          <mxGeometry x="205" y="490" width="130" height="100" as="geometry" />
        </mxCell>
        <mxCell id="JwGOns0t6T0o0Sj6g02T-18" value="" style="edgeStyle=orthogonalEdgeStyle;rounded=1;orthogonalLoop=1;jettySize=auto;html=1;entryX=0.5;entryY=0;entryDx=0;entryDy=0;labelBackgroundColor=#DAD2D8;strokeColor=#A8201A;fontColor=#143642;labelBorderColor=none;" edge="1" parent="JwGOns0t6T0o0Sj6g02T-87" source="JwGOns0t6T0o0Sj6g02T-19" target="JwGOns0t6T0o0Sj6g02T-24">
          <mxGeometry relative="1" as="geometry">
            <mxPoint x="270" y="590" as="targetPoint" />
          </mxGeometry>
        </mxCell>
        <mxCell id="JwGOns0t6T0o0Sj6g02T-26" value="Get the query&lt;br&gt;and update customer" style="html=1;strokeWidth=2;fillColor=#FAE5C7;strokeColor=#0F8B8D;fontColor=#143642;rounded=1;labelBorderColor=none;whiteSpace=wrap;" vertex="1" parent="JwGOns0t6T0o0Sj6g02T-87">
          <mxGeometry x="320" y="180" width="120" height="60" as="geometry" />
        </mxCell>
        <mxCell id="JwGOns0t6T0o0Sj6g02T-4" value="" style="edgeStyle=orthogonalEdgeStyle;rounded=1;orthogonalLoop=1;jettySize=auto;html=1;labelBackgroundColor=#DAD2D8;strokeColor=#A8201A;fontColor=#143642;labelBorderColor=none;" edge="1" parent="JwGOns0t6T0o0Sj6g02T-87" source="JwGOns0t6T0o0Sj6g02T-6" target="JwGOns0t6T0o0Sj6g02T-26">
          <mxGeometry relative="1" as="geometry" />
        </mxCell>
        <mxCell id="JwGOns0t6T0o0Sj6g02T-5" value="Query" style="edgeLabel;html=1;align=center;verticalAlign=middle;resizable=0;points=[];labelBackgroundColor=#DAD2D8;fontColor=#143642;rounded=1;labelBorderColor=none;" vertex="1" connectable="0" parent="JwGOns0t6T0o0Sj6g02T-4">
          <mxGeometry x="-0.3" y="4" relative="1" as="geometry">
            <mxPoint as="offset" />
          </mxGeometry>
        </mxCell>
        <mxCell id="JwGOns0t6T0o0Sj6g02T-27" style="edgeStyle=orthogonalEdgeStyle;rounded=1;orthogonalLoop=1;jettySize=auto;html=1;exitX=0.5;exitY=1;exitDx=0;exitDy=0;entryX=1;entryY=0.5;entryDx=0;entryDy=0;labelBackgroundColor=#DAD2D8;strokeColor=#A8201A;fontColor=#143642;labelBorderColor=none;" edge="1" parent="JwGOns0t6T0o0Sj6g02T-87" source="JwGOns0t6T0o0Sj6g02T-31" target="JwGOns0t6T0o0Sj6g02T-17">
          <mxGeometry relative="1" as="geometry" />
        </mxCell>
        <mxCell id="JwGOns0t6T0o0Sj6g02T-28" value="No" style="edgeLabel;html=1;align=center;verticalAlign=middle;resizable=0;points=[];labelBackgroundColor=#DAD2D8;fontColor=#143642;rounded=1;labelBorderColor=none;" vertex="1" connectable="0" parent="JwGOns0t6T0o0Sj6g02T-27">
          <mxGeometry x="-0.7712" y="4" relative="1" as="geometry">
            <mxPoint y="1" as="offset" />
          </mxGeometry>
        </mxCell>
        <mxCell id="JwGOns0t6T0o0Sj6g02T-29" style="edgeStyle=orthogonalEdgeStyle;rounded=1;orthogonalLoop=1;jettySize=auto;html=1;exitX=1;exitY=0.5;exitDx=0;exitDy=0;entryX=1;entryY=1;entryDx=0;entryDy=0;labelBackgroundColor=#DAD2D8;strokeColor=#A8201A;fontColor=#143642;labelBorderColor=none;" edge="1" parent="JwGOns0t6T0o0Sj6g02T-87" source="JwGOns0t6T0o0Sj6g02T-31" target="JwGOns0t6T0o0Sj6g02T-26">
          <mxGeometry relative="1" as="geometry" />
        </mxCell>
        <mxCell id="JwGOns0t6T0o0Sj6g02T-30" value="yes" style="edgeLabel;html=1;align=center;verticalAlign=middle;resizable=0;points=[];labelBackgroundColor=#DAD2D8;fontColor=#143642;rounded=1;labelBorderColor=none;" vertex="1" connectable="0" parent="JwGOns0t6T0o0Sj6g02T-29">
          <mxGeometry x="-0.5187" y="-1" relative="1" as="geometry">
            <mxPoint y="1" as="offset" />
          </mxGeometry>
        </mxCell>
        <mxCell id="JwGOns0t6T0o0Sj6g02T-31" value="&lt;span style=&quot;&quot;&gt;Ask if any further query&lt;/span&gt;" style="rhombus;html=1;strokeWidth=2;fillColor=#FAE5C7;strokeColor=#0F8B8D;fontColor=#143642;rounded=1;labelBorderColor=none;whiteSpace=wrap;" vertex="1" parent="JwGOns0t6T0o0Sj6g02T-87">
          <mxGeometry x="340" y="320" width="80" height="80" as="geometry" />
        </mxCell>
        <mxCell id="JwGOns0t6T0o0Sj6g02T-25" value="" style="edgeStyle=orthogonalEdgeStyle;rounded=1;orthogonalLoop=1;jettySize=auto;html=1;labelBackgroundColor=#DAD2D8;strokeColor=#A8201A;fontColor=#143642;labelBorderColor=none;" edge="1" parent="JwGOns0t6T0o0Sj6g02T-87" source="JwGOns0t6T0o0Sj6g02T-26" target="JwGOns0t6T0o0Sj6g02T-31">
          <mxGeometry relative="1" as="geometry" />
        </mxCell>
        <mxCell id="JwGOns0t6T0o0Sj6g02T-46" style="edgeStyle=orthogonalEdgeStyle;rounded=1;orthogonalLoop=1;jettySize=auto;html=1;exitX=0.5;exitY=1;exitDx=0;exitDy=0;labelBackgroundColor=#DAD2D8;strokeColor=#A8201A;fontColor=#143642;labelBorderColor=none;" edge="1" parent="JwGOns0t6T0o0Sj6g02T-87" source="JwGOns0t6T0o0Sj6g02T-47" target="JwGOns0t6T0o0Sj6g02T-11">
          <mxGeometry relative="1" as="geometry" />
        </mxCell>
        <mxCell id="JwGOns0t6T0o0Sj6g02T-47" value="Update the priority in zendesk ticket" style="html=1;strokeWidth=2;fillColor=#FAE5C7;strokeColor=#0F8B8D;fontColor=#143642;rounded=1;labelBorderColor=none;whiteSpace=wrap;" vertex="1" parent="JwGOns0t6T0o0Sj6g02T-87">
          <mxGeometry x="60" y="280" width="120" height="40" as="geometry" />
        </mxCell>
        <mxCell id="JwGOns0t6T0o0Sj6g02T-7" value="" style="edgeStyle=orthogonalEdgeStyle;rounded=1;orthogonalLoop=1;jettySize=auto;html=1;labelBackgroundColor=#DAD2D8;strokeColor=#A8201A;fontColor=#143642;labelBorderColor=none;" edge="1" parent="JwGOns0t6T0o0Sj6g02T-87" source="JwGOns0t6T0o0Sj6g02T-8" target="JwGOns0t6T0o0Sj6g02T-47">
          <mxGeometry relative="1" as="geometry" />
        </mxCell>
        <mxCell id="JwGOns0t6T0o0Sj6g02T-10" style="edgeStyle=orthogonalEdgeStyle;rounded=1;orthogonalLoop=1;jettySize=auto;html=1;exitX=0;exitY=0.5;exitDx=0;exitDy=0;entryX=0.5;entryY=0;entryDx=0;entryDy=0;labelBorderColor=none;fontColor=#143642;strokeColor=#A8201A;fillColor=#FAE5C7;labelBackgroundColor=#DAD2D8;" edge="1" parent="77e6c97f196da883-1" source="JwGOns0t6T0o0Sj6g02T-11" target="JwGOns0t6T0o0Sj6g02T-33">
          <mxGeometry relative="1" as="geometry" />
        </mxCell>
        <mxCell id="JwGOns0t6T0o0Sj6g02T-71" value="" style="edgeStyle=orthogonalEdgeStyle;rounded=1;orthogonalLoop=1;jettySize=auto;html=1;labelBackgroundColor=#DAD2D8;strokeColor=#A8201A;fontColor=#143642;labelBorderColor=none;" edge="1" parent="77e6c97f196da883-1" source="JwGOns0t6T0o0Sj6g02T-73" target="JwGOns0t6T0o0Sj6g02T-75">
          <mxGeometry relative="1" as="geometry" />
        </mxCell>
        <mxCell id="JwGOns0t6T0o0Sj6g02T-72" value="No" style="edgeLabel;html=1;align=center;verticalAlign=middle;resizable=0;points=[];fontColor=#143642;labelBackgroundColor=#DAD2D8;" vertex="1" connectable="0" parent="JwGOns0t6T0o0Sj6g02T-71">
          <mxGeometry x="-0.2645" y="-1" relative="1" as="geometry">
            <mxPoint as="offset" />
          </mxGeometry>
        </mxCell>
        <mxCell id="JwGOns0t6T0o0Sj6g02T-76" value="" style="edgeStyle=orthogonalEdgeStyle;rounded=1;orthogonalLoop=1;jettySize=auto;html=1;labelBackgroundColor=#DAD2D8;strokeColor=#A8201A;fontColor=#143642;labelBorderColor=none;" edge="1" parent="77e6c97f196da883-1" source="JwGOns0t6T0o0Sj6g02T-80" target="JwGOns0t6T0o0Sj6g02T-81">
          <mxGeometry relative="1" as="geometry" />
        </mxCell>
        <mxCell id="JwGOns0t6T0o0Sj6g02T-77" value="Yes" style="edgeLabel;html=1;align=center;verticalAlign=middle;resizable=0;points=[];labelBackgroundColor=#DAD2D8;fontColor=#143642;rounded=1;labelBorderColor=none;" vertex="1" connectable="0" parent="JwGOns0t6T0o0Sj6g02T-76">
          <mxGeometry x="-0.1111" relative="1" as="geometry">
            <mxPoint as="offset" />
          </mxGeometry>
        </mxCell>
      </root>
    </mxGraphModel>
  </diagram>
</mxfile>
